<?xml version="1.0" encoding="utf-8"?>
<!-- Generator: Adobe Illustrator 16.0.0, SVG Export Plug-In . SVG Version: 6.00 Build 0)  -->
<!DOCTYPE svg PUBLIC "-//W3C//DTD SVG 1.1//EN" "http://www.w3.org/Graphics/SVG/1.1/DTD/svg11.dtd">
<svg version="1.1" id="Layer_1" xmlns="http://www.w3.org/2000/svg" xmlns:xlink="http://www.w3.org/1999/xlink" x="0px" y="0px"
	 width="246.615px" height="370.301px" viewBox="0 0 246.615 370.301" enable-background="new 0 0 246.615 370.301"
	 xml:space="preserve">
<g>
	<g>
		<g>
			<path fill="#F26322" d="M102.434,39.333l-4.283-3.434c-0.83,0.802-1.62,1.63-2.375,2.482l3.605,4.139
				c-0.559,0.653-1.089,1.321-1.598,2.002l-4.828-2.617c-0.67,0.935-1.302,1.894-1.894,2.868l4.285,3.43
				c-0.43,0.74-0.831,1.491-1.21,2.253l-5.212-1.714c-0.494,1.041-0.942,2.097-1.352,3.166l4.833,2.609
				c-0.291,0.803-0.555,1.608-0.789,2.424l-5.432-0.752c-0.298,1.11-0.555,2.231-0.766,3.359l5.22,1.707
				c-0.14,0.836-0.251,1.675-0.337,2.518L84.819,64c-0.095,1.147-0.146,2.297-0.155,3.449l5.438,0.744
				c0.009,0.847,0.047,1.69,0.11,2.532l-5.352,1.206c0.112,1.145,0.261,2.283,0.458,3.419l5.486-0.236
				c0.157,0.828,0.348,1.649,0.559,2.466l-5.054,2.146c0.31,1.103,0.665,2.2,1.062,3.283l5.354-1.213
				c0.304,0.785,0.637,1.558,0.993,2.328l-4.592,3.007c0.503,1.03,1.046,2.044,1.635,3.042l5.053-2.15
				c0.44,0.714,0.899,1.417,1.388,2.108l-3.977,3.779c0.678,0.922,1.396,1.825,2.155,2.706l4.587-3.017
				c0.338,0.376,0.684,0.754,1.04,1.124c0.23,0.238,0.462,0.471,0.695,0.699l-3.239,4.428c0.843,0.803,1.71,1.563,2.598,2.286
				l3.971-3.786c0.667,0.521,1.345,1.018,2.037,1.489l-2.398,4.938c0.964,0.634,1.955,1.23,2.961,1.783l3.234-4.438
				c0.749,0.396,1.504,0.762,2.271,1.101l-1.481,5.291c1.068,0.451,2.146,0.854,3.235,1.219l2.392-4.938
				c0.803,0.253,1.614,0.476,2.429,0.673l-0.509,5.466c1.125,0.251,2.259,0.461,3.398,0.625l1.469-5.288
				c0.836,0.104,1.675,0.185,2.513,0.235l0.475,5.469c1.15,0.049,2.305,0.055,3.454,0.012l0.5-5.462
				c0.843-0.047,1.685-0.119,2.521-0.217l1.442,5.296c1.139-0.155,2.274-0.353,3.4-0.597l-0.482-5.464
				c0.82-0.195,1.637-0.412,2.447-0.659l2.366,4.952c1.089-0.355,2.172-0.752,3.234-1.194l-1.452-5.296
				c0.775-0.335,1.54-0.7,2.294-1.09l3.217,4.452c1.005-0.543,1.992-1.128,2.962-1.755l-2.369-4.947
				c0.698-0.47,1.385-0.968,2.063-1.493l3.956,3.807c0.889-0.713,1.757-1.463,2.602-2.254l-3.216-4.445
				c0.618-0.595,1.205-1.205,1.773-1.832l4.571,3.039c0.76-0.871,1.479-1.763,2.162-2.675l-3.958-3.799
				c0.5-0.696,0.973-1.404,1.423-2.128l5.043,2.175c0.59-0.99,1.138-1.993,1.642-3.017l-4.572-3.03
				c0.365-0.776,0.708-1.563,1.021-2.358l5.348,1.24c0.404-1.076,0.761-2.164,1.075-3.26l-5.045-2.165
				c0.225-0.832,0.418-1.667,0.582-2.507l5.485,0.265c0.202-1.129,0.36-2.261,0.476-3.396l-5.35-1.232
				c0.071-0.857,0.116-1.714,0.13-2.574l5.442-0.72c-0.003-1.142-0.047-2.283-0.138-3.423l-5.481-0.257
				c-0.081-0.858-0.194-1.711-0.333-2.562l5.227-1.68c-0.204-1.121-0.453-2.237-0.745-3.342l-5.438,0.726
				c-0.235-0.827-0.494-1.651-0.787-2.467l4.841-2.586c-0.402-1.064-0.844-2.113-1.329-3.151l-5.225,1.687
				c-0.38-0.774-0.785-1.536-1.223-2.288l4.304-3.409c-0.585-0.972-1.208-1.925-1.879-2.859l-4.834,2.591
				c-0.514-0.688-1.056-1.366-1.618-2.029l3.625-4.124c-0.454-0.515-0.918-1.024-1.403-1.523c-0.313-0.324-0.629-0.642-0.953-0.955
				l-4.293,3.415c-0.637-0.598-1.288-1.167-1.949-1.716l2.828-4.703c-0.898-0.714-1.819-1.386-2.757-2.021l-3.619,4.124
				c-0.729-0.471-1.473-0.918-2.228-1.337l1.942-5.132c-1.008-0.538-2.033-1.033-3.075-1.49l-2.822,4.708
				c-0.801-0.333-1.613-0.639-2.433-0.917l0.998-5.396c-1.089-0.348-2.188-0.651-3.296-0.913l-1.938,5.138
				c-0.845-0.184-1.694-0.336-2.552-0.462l0.018-5.488c-1.133-0.148-2.271-0.249-3.407-0.309l-0.991,5.396
				c-0.861-0.028-1.725-0.029-2.589-0.004l-0.962-5.4c-1.14,0.056-2.278,0.156-3.411,0.301l-0.009,5.49
				c-0.852,0.125-1.701,0.279-2.544,0.458l-1.914-5.142c-1.109,0.259-2.209,0.561-3.301,0.906l0.969,5.402
				c-0.814,0.274-1.62,0.577-2.42,0.905l-2.8-4.719c-1.043,0.454-2.074,0.949-3.084,1.484l1.92,5.146
				c-0.748,0.416-1.488,0.858-2.213,1.324l-3.598-4.146c-0.944,0.635-1.868,1.308-2.773,2.022l2.808,4.72
				C103.705,38.182,103.063,38.744,102.434,39.333z M153.029,76.744c4.231,4.379,4.11,11.363-0.269,15.593
				c-4.382,4.231-11.361,4.114-15.596-0.271c-4.228-4.378-4.11-11.36,0.271-15.592C141.815,72.242,148.796,72.362,153.029,76.744z
				 M153.595,43.915c4.229,4.381,4.111,11.361-0.27,15.593c-4.38,4.232-11.362,4.11-15.594-0.27
				c-4.232-4.38-4.111-11.361,0.268-15.594C142.383,39.414,149.362,39.534,153.595,43.915z M132.314,71.171
				c-1.915,1.849-4.964,1.799-6.813-0.116c-1.849-1.912-1.796-4.963,0.118-6.813c1.916-1.848,4.965-1.797,6.813,0.117
				C134.28,66.272,134.227,69.324,132.314,71.171z M120.202,76.176c4.23,4.382,4.11,11.363-0.271,15.595
				c-4.382,4.231-11.361,4.113-15.594-0.269c-4.232-4.379-4.111-11.361,0.27-15.595C108.987,71.675,115.968,71.795,120.202,76.176z
				 M120.767,43.347c4.231,4.383,4.11,11.364-0.27,15.594c-4.381,4.232-11.362,4.111-15.594-0.269
				c-4.232-4.38-4.112-11.362,0.268-15.593C109.551,38.849,116.536,38.969,120.767,43.347z"/>
		</g>
	</g>
</g>
</svg>
