<?xml version="1.0" encoding="utf-8"?>
<!-- Generator: Adobe Illustrator 16.0.0, SVG Export Plug-In . SVG Version: 6.00 Build 0)  -->
<!DOCTYPE svg PUBLIC "-//W3C//DTD SVG 1.1//EN" "http://www.w3.org/Graphics/SVG/1.1/DTD/svg11.dtd">
<svg version="1.1" id="Layer_1" xmlns="http://www.w3.org/2000/svg" xmlns:xlink="http://www.w3.org/1999/xlink" x="0px" y="0px"
	 width="246.615px" height="370.301px" viewBox="0 0 246.615 370.301" enable-background="new 0 0 246.615 370.301"
	 xml:space="preserve">
<g>
	<g>
		<g>
			<path fill="#F26322" d="M72.663,83.398l0.561-4.034c-0.828-0.224-1.655-0.414-2.484-0.57l-1.267,3.872
				c-0.627-0.106-1.256-0.191-1.883-0.256l-0.168-4.071c-0.852-0.071-1.702-0.109-2.547-0.115l-0.556,4.033
				c-0.633,0.008-1.268,0.038-1.895,0.088l-0.892-3.973c-0.851,0.081-1.693,0.196-2.53,0.342l0.175,4.07
				c-0.621,0.122-1.235,0.262-1.845,0.422l-1.585-3.748c-0.822,0.232-1.633,0.494-2.432,0.789l0.897,3.977
				c-0.585,0.229-1.164,0.475-1.731,0.743l-2.231-3.405c-0.767,0.374-1.519,0.779-2.252,1.209l1.591,3.749
				c-0.533,0.327-1.058,0.672-1.57,1.032l-2.801-2.949c-0.689,0.501-1.36,1.033-2.008,1.59l2.237,3.406
				c-0.465,0.416-0.918,0.848-1.358,1.295L40.8,88.486c-0.586,0.619-1.148,1.262-1.688,1.928l2.809,2.949
				c-0.383,0.491-0.749,0.997-1.104,1.517l-3.662-1.78c-0.466,0.712-0.906,1.445-1.317,2.199l3.291,2.401
				c-0.288,0.55-0.561,1.112-0.815,1.684l-3.918-1.095c-0.33,0.784-0.632,1.583-0.905,2.401l3.667,1.776
				c-0.112,0.359-0.221,0.725-0.321,1.091c-0.065,0.236-0.124,0.47-0.183,0.708l-4.051-0.38c-0.191,0.841-0.345,1.684-0.468,2.523
				l3.923,1.093c-0.079,0.62-0.139,1.241-0.176,1.861l-4.058,0.35c-0.036,0.86-0.041,1.715-0.009,2.565l4.055,0.372
				c0.034,0.626,0.089,1.247,0.163,1.867l-3.933,1.069c0.118,0.848,0.27,1.69,0.454,2.524l4.056-0.356
				c0.145,0.608,0.31,1.21,0.493,1.804l-3.676,1.753c0.266,0.814,0.566,1.616,0.894,2.404l3.928-1.074
				c0.251,0.571,0.519,1.134,0.806,1.688l-3.304,2.384c0.406,0.751,0.841,1.486,1.304,2.205l3.673-1.76
				c0.346,0.52,0.714,1.026,1.096,1.523l-2.827,2.935c0.531,0.666,1.091,1.313,1.674,1.94l3.297-2.387
				c0.436,0.447,0.886,0.885,1.353,1.308l-2.257,3.391c0.641,0.56,1.305,1.096,1.993,1.606l2.819-2.939
				c0.51,0.366,1.033,0.715,1.569,1.048l-1.616,3.74c0.729,0.434,1.479,0.842,2.247,1.22l2.25-3.392
				c0.566,0.268,1.145,0.516,1.734,0.748l-0.92,3.967c0.792,0.297,1.603,0.563,2.427,0.801l1.607-3.737
				c0.614,0.165,1.228,0.306,1.844,0.432l-0.2,4.067c0.844,0.154,1.687,0.274,2.53,0.361l0.914-3.967
				c0.633,0.055,1.266,0.086,1.896,0.097l0.532,4.04c0.853-0.001,1.701-0.034,2.547-0.098l0.19-4.069
				c0.636-0.061,1.265-0.141,1.89-0.245l1.246,3.878c0.836-0.152,1.666-0.339,2.485-0.555l-0.539-4.037
				c0.614-0.173,1.22-0.369,1.818-0.583l1.918,3.594c0.794-0.299,1.576-0.63,2.344-0.992l-1.249-3.872
				c0.573-0.281,1.135-0.58,1.689-0.896l2.527,3.19c0.726-0.435,1.438-0.897,2.129-1.388l-1.922-3.59
				c0.516-0.377,1.015-0.774,1.505-1.186l3.059,2.693c0.636-0.56,1.253-1.14,1.843-1.749l-2.529-3.186
				c0.438-0.467,0.864-0.944,1.273-1.44l3.492,2.102c0.521-0.662,1.023-1.344,1.498-2.048l-3.062-2.685
				c0.348-0.538,0.681-1.086,0.995-1.651l3.809,1.445c0.396-0.741,0.765-1.502,1.104-2.285l-3.491-2.096
				c0.246-0.587,0.472-1.189,0.681-1.8l4.007,0.742c0.153-0.485,0.3-0.974,0.434-1.473c0.088-0.324,0.167-0.647,0.247-0.968
				l-3.808-1.44c0.139-0.634,0.255-1.263,0.35-1.894l4.074,0.013c0.113-0.842,0.191-1.685,0.237-2.526l-4.003-0.733
				c0.023-0.645,0.024-1.289,0.005-1.927l4.008-0.715c-0.041-0.848-0.114-1.692-0.223-2.528l-4.071-0.009
				c-0.093-0.637-0.206-1.269-0.341-1.897l3.817-1.416c-0.193-0.827-0.417-1.642-0.67-2.447l-4.012,0.721
				c-0.204-0.61-0.43-1.21-0.673-1.802l3.501-2.076c-0.338-0.778-0.707-1.541-1.101-2.29l-3.815,1.423
				c-0.309-0.56-0.636-1.111-0.981-1.65l3.075-2.669c-0.47-0.704-0.966-1.389-1.49-2.057l-3.502,2.083
				c-0.402-0.497-0.822-0.978-1.259-1.447l2.55-3.175c-0.587-0.61-1.2-1.197-1.834-1.758l-3.074,2.672
				c-0.485-0.417-0.983-0.814-1.497-1.199l1.941-3.578c-0.685-0.492-1.392-0.963-2.122-1.402l-2.546,3.181
				c-0.547-0.318-1.108-0.621-1.683-0.905l1.272-3.868c-0.763-0.361-1.544-0.694-2.342-0.997l-1.94,3.582
				C73.882,83.771,73.278,83.574,72.663,83.398z M71.204,85.621l-5.571,20.57c-0.638-0.126-1.275-0.122-1.883-0.007L58.288,85.58
				C62.399,84.546,66.816,84.494,71.204,85.621z M67.064,111.738c-0.356,1.317-1.714,2.093-3.029,1.738
				c-1.317-0.357-2.096-1.712-1.738-3.029c0.356-1.315,1.711-2.094,3.028-1.737C66.642,109.067,67.419,110.421,67.064,111.738z
				 M57.591,85.766l5.463,20.603c-0.597,0.208-1.155,0.524-1.634,0.937L46.389,92.196C49.53,89.161,53.386,86.946,57.591,85.766z
				 M45.877,92.7l15.033,15.113c-0.408,0.467-0.731,1.017-0.943,1.631l-20.573-5.571C40.638,99.521,42.908,95.731,45.877,92.7z
				 M39.207,104.568l20.57,5.57c-0.125,0.638-0.123,1.275-0.004,1.883l-20.605,5.462C38.134,113.373,38.082,108.953,39.207,104.568z
				 M39.352,118.181l20.603-5.463c0.207,0.597,0.526,1.154,0.938,1.634l-15.109,15.032
				C42.747,126.242,40.534,122.385,39.352,118.181z M46.29,129.896l15.111-15.033c0.466,0.407,1.015,0.73,1.629,0.945l-5.572,20.568
				C53.105,135.136,49.318,132.862,46.29,129.896z M58.156,136.568l5.57-20.573c0.639,0.125,1.276,0.123,1.884,0.008l5.462,20.601
				C66.959,137.639,62.543,137.69,58.156,136.568z M71.768,136.419l-5.463-20.604c0.598-0.205,1.155-0.524,1.634-0.936L82.97,129.99
				C79.83,133.025,75.971,135.239,71.768,136.419z M83.481,129.484L68.449,114.37c0.407-0.465,0.729-1.014,0.944-1.627l20.572,5.57
				C88.724,122.667,86.449,126.454,83.481,129.484z M90.154,117.616l-20.573-5.57c0.126-0.636,0.124-1.273,0.007-1.882l20.603-5.465
				C91.227,108.811,91.278,113.231,90.154,117.616z M90.008,104.006l-20.604,5.461c-0.206-0.598-0.524-1.153-0.938-1.633
				l15.111-15.032C86.611,95.944,88.826,99.801,90.008,104.006z M83.07,92.291l-15.111,15.031c-0.467-0.405-1.017-0.729-1.628-0.944
				l5.568-20.571C76.254,87.05,80.042,89.323,83.07,92.291z"/>
		</g>
	</g>
</g>
</svg>
