<?xml version="1.0" encoding="utf-8"?>
<!-- Generator: Adobe Illustrator 16.0.0, SVG Export Plug-In . SVG Version: 6.00 Build 0)  -->
<!DOCTYPE svg PUBLIC "-//W3C//DTD SVG 1.1//EN" "http://www.w3.org/Graphics/SVG/1.1/DTD/svg11.dtd">
<svg version="1.1" id="Layer_1" xmlns="http://www.w3.org/2000/svg" xmlns:xlink="http://www.w3.org/1999/xlink" x="0px" y="0px"
	 width="246.615px" height="370.301px" viewBox="0 0 246.615 370.301" enable-background="new 0 0 246.615 370.301"
	 xml:space="preserve">
<path fill="#FFFFFF" d="M216.744,101.56c-1.873-6.643,3.01-20.729,1.928-27.546c-1.096-6.89-6.115-22.561-8.77-30.593
	c0.299-8.843,2.266-20.092-3.112-27.261c-8.907-11.875-28.382-8.256-28.382-8.256S67.559-15.471,42.822,18.176
	c-47.499,0.99-53.934,132.933-7.543,163.133c0,0,11.621,46.83-35.279,80.287h0.628c93.263,16.789,136.354,108.705,136.354,108.705
	s-12.603-40.797-11.934-58.518c0.169-4.457,6.125-13.934,6.629-18.365c1.526-13.391-4.641-37.57,9.281-46.232
	c13.922-8.66,70.933,7.998,77.305-3.801c6.373-11.803-0.41-32.275,1.246-34.572c1.653-2.293,6.178-0.311,6.615-6.969
	c0.439-6.658-4.074-8.424-4.074-8.424c3.146-1.826,7.475-2.467,5.82-9.586c-0.412-1.768-2.564-3.283-3.455-4.926
	c-1.864-3.441-1.273-7.317,0.934-9.419c4.736-4.505,18.351,0.685,21.082-10.958C249.162,146.888,220.585,115.186,216.744,101.56z"/>
</svg>
