<?xml version="1.0" encoding="utf-8"?>
<!-- Generator: Adobe Illustrator 16.0.0, SVG Export Plug-In . SVG Version: 6.00 Build 0)  -->
<!DOCTYPE svg PUBLIC "-//W3C//DTD SVG 1.1//EN" "http://www.w3.org/Graphics/SVG/1.1/DTD/svg11.dtd">
<svg version="1.1" id="Layer_1" xmlns="http://www.w3.org/2000/svg" xmlns:xlink="http://www.w3.org/1999/xlink" x="0px" y="0px"
	 width="246.615px" height="370.301px" viewBox="0 0 246.615 370.301" enable-background="new 0 0 246.615 370.301"
	 xml:space="preserve">
<g>
	<g>
		<g>
			<g>
				<path fill="#F26322" d="M176.09,110.29c-0.054-0.033-0.106-0.066-0.161-0.098c-1.191-0.712-2.418-1.332-3.66-1.861l-2.504,3.74
					c-0.632-0.248-1.269-0.466-1.913-0.661l0.317-4.492c-1.393-0.37-2.805-0.634-4.217-0.797l-1.346,4.296
					c-0.677-0.053-1.351-0.083-2.024-0.087l-0.958-4.398c-1.438,0.041-2.861,0.184-4.273,0.424l-0.081,4.502
					c-0.662,0.134-1.317,0.296-1.965,0.483l-2.161-3.952c-1.36,0.442-2.692,0.977-3.982,1.607l1.188,4.339
					c-0.595,0.315-1.181,0.656-1.749,1.017l-3.188-3.181c-1.174,0.8-2.301,1.688-3.364,2.664l2.364,3.831
					c-0.48,0.469-0.944,0.958-1.393,1.471l-3.949-2.154c-0.897,1.093-1.725,2.265-2.478,3.507l3.344,3.008
					c-0.332,0.593-0.641,1.194-0.923,1.803l-4.396-0.955c-0.569,1.332-1.032,2.689-1.398,4.059l4.061,1.944
					c-0.151,0.662-0.275,1.327-0.375,1.992l-4.493,0.324c-0.164,1.43-0.224,2.862-0.185,4.289l4.443,0.72
					c0.041,0.676,0.107,1.347,0.2,2.014l-4.217,1.577c0.245,1.411,0.586,2.804,1.028,4.169l4.462-0.56
					c0.227,0.636,0.48,1.26,0.758,1.878l-3.603,2.698c0.628,1.282,1.346,2.526,2.154,3.713l4.127-1.794
					c0.397,0.543,0.816,1.074,1.257,1.588l-2.691,3.606c0.958,1.045,1.996,2.032,3.118,2.951l3.455-2.888
					c0.531,0.407,1.079,0.795,1.652,1.168l-1.57,4.217c0.054,0.031,0.105,0.067,0.161,0.099c1.194,0.713,2.417,1.329,3.661,1.862
					l2.499-3.741c0.634,0.243,1.273,0.463,1.917,0.657l-0.32,4.494c1.397,0.37,2.806,0.634,4.22,0.797l1.347-4.297
					c0.674,0.057,1.349,0.085,2.023,0.09l0.96,4.397c1.437-0.042,2.861-0.185,4.272-0.425l0.081-4.5
					c0.66-0.137,1.314-0.298,1.964-0.486l2.16,3.949c1.363-0.438,2.691-0.976,3.982-1.604l-1.191-4.339
					c0.599-0.315,1.183-0.653,1.755-1.018l3.185,3.181c1.175-0.802,2.302-1.691,3.366-2.661l-2.365-3.833
					c0.479-0.47,0.947-0.958,1.393-1.471l3.948,2.154c0.899-1.096,1.728-2.264,2.479-3.506l-3.347-3.008
					c0.335-0.593,0.643-1.194,0.925-1.802l4.399,0.954c0.566-1.331,1.032-2.69,1.396-4.06l-4.063-1.942
					c0.154-0.662,0.278-1.327,0.379-1.992l4.491-0.325c0.165-1.428,0.226-2.861,0.185-4.289l-4.441-0.724
					c-0.041-0.671-0.109-1.346-0.203-2.013l4.216-1.575c-0.24-1.412-0.584-2.807-1.023-4.171l-4.464,0.562
					c-0.229-0.632-0.482-1.262-0.759-1.879l3.603-2.698c-0.628-1.282-1.348-2.521-2.155-3.71l-4.128,1.796
					c-0.395-0.546-0.813-1.079-1.258-1.594l2.696-3.604c-0.959-1.045-1.996-2.03-3.118-2.951l-3.458,2.886
					c-0.531-0.405-1.078-0.794-1.651-1.165L176.09,110.29z M179.606,147.579c-6.312,10.583-20.005,14.045-30.589,7.735
					c-10.58-6.313-14.044-20.008-7.731-30.593c6.313-10.58,20.008-14.042,30.59-7.729
					C182.458,123.302,185.92,136.995,179.606,147.579z"/>
				<path fill="#F26322" d="M141.998,125.146c-6.079,10.191-2.747,23.377,7.443,29.455c10.19,6.077,23.378,2.744,29.455-7.446
					c6.077-10.19,2.744-23.375-7.444-29.454C161.26,111.621,148.076,114.956,141.998,125.146z M176.067,145.466
					c-5.146,8.627-16.311,11.451-24.937,6.305c-8.63-5.147-11.451-16.313-6.306-24.939c5.146-8.627,16.31-11.448,24.939-6.303
					C178.391,125.677,181.213,136.84,176.067,145.466z"/>
			</g>
		</g>
	</g>
</g>
</svg>
