<?xml version="1.0" encoding="utf-8"?>
<!-- Generator: Adobe Illustrator 16.0.0, SVG Export Plug-In . SVG Version: 6.00 Build 0)  -->
<!DOCTYPE svg PUBLIC "-//W3C//DTD SVG 1.1//EN" "http://www.w3.org/Graphics/SVG/1.1/DTD/svg11.dtd">
<svg version="1.1" id="Layer_1" xmlns="http://www.w3.org/2000/svg" xmlns:xlink="http://www.w3.org/1999/xlink" x="0px" y="0px"
	 width="246.615px" height="370.301px" viewBox="0 0 246.615 370.301" enable-background="new 0 0 246.615 370.301"
	 xml:space="preserve">
<path fill="#FFFFFF" d="M217.929,183.498c31.464-51.049,34.594-82.683,7.834-100.628c-15.622-10.476-32.211-1.322-43.315,8.112
	c-6.63-14.55-15.766-26.12-23.497-32.058c-25.722-19.76-84.976-31.71-118.656-4.092C8.984,80.504,24.949,92.567,27.35,94.137
	c-2.142,4.983-2.317,18.191-1.984,29.251c0.012,0.366-0.005,0.738-0.043,1.117c-2.244,0.416-5.469,0.011-9.182-3.475
	c1.222,5.31,5.093,6.972,8.066,7.443c-4.691,10.979-22.034,25.324-21.451,31.703c0.675,7.425,11.136,9.448,10.799,13.164
	c-0.339,3.712-4.386,4.725-4.386,4.725s-4.051,5.063,3.035,10.125c-7.425,3.376-2.698,11.14-2.698,11.14s5.364,0.759,5.061,3.036
	c-0.303,2.277-6.412,11.476,0,20.249c6.415,8.776,38.813-1.688,50.962,1.689c12.15,3.374,35.099,50.961,33.074,65.474
	s-20.586,41.847-20.586,41.847c55.526,2.204,44.896-57.025,87.714-62.759c-35.816-25.55-27.227-61.15-27.227-61.15
	c54.022-29.003,58.922-71.383,48.72-104.217c5.205,1.058,10.853,3.56,15.932,8.767c14.543,14.906-32.637,62.016-18.25,102.628
	c14.386,40.608,53.186,23.965,53.186,23.965S186.466,234.545,217.929,183.498z"/>
</svg>
